# xmcd CD database file
#
# Track frame offsets:
#	150
#	10989
#	19654
#	29444
#	42453
#	59432
#	78181
#	98518
#	116403
#	146715
#
# Disc length: 2165 seconds
#
# Revision: 0
# Processed by: cddbd v1.5.1PL0 Copyright (c) Steve Scherf et al.
# Submitted via: CDex 1.51
#
DISCID=7908730a
DTITLE=竹田　和夫 - Misty Morning Flight
DYEAR=1900
DGENRE=Rock
TTITLE0=AMARILLO-at the airport
TTITLE1=AMARILLO-daybreak
TTITLE2=AMARILLO-misty morning flight
TTITLE3=暗闇のレオ
TTITLE4=Midnight Blue Moon Part1
TTITLE5=Midnight Blue Moon Part2
TTITLE6=Toward North Wind
TTITLE7=50 Coffee Break Blues
TTITLE8=Tokyo Sarry
TTITLE9=Wild Cat
EXTD=
EXTT0=
EXTT1=
EXTT2=
EXTT3=
EXTT4=
EXTT5=
EXTT6=
EXTT7=
EXTT8=
EXTT9=
PLAYORDER=
